<svg width="1600" height="900" viewBox="0 0 1600 900" fill="none" xmlns="http://www.w3.org/2000/svg">
  <defs>
    <linearGradient id="g1" x1="0" y1="0" x2="1" y2="1">
      <stop offset="0" stop-color="#6366F1" stop-opacity="0.55"/>
      <stop offset="0.55" stop-color="#A855F7" stop-opacity="0.38"/>
      <stop offset="1" stop-color="#EC4899" stop-opacity="0.28"/>
    </linearGradient>
    <radialGradient id="r1" cx="0" cy="0" r="1" gradientUnits="userSpaceOnUse" gradientTransform="translate(420 280) rotate(35) scale(520 340)">
      <stop stop-color="#6366F1" stop-opacity="0.55"/>
      <stop offset="1" stop-color="#6366F1" stop-opacity="0"/>
    </radialGradient>
    <radialGradient id="r2" cx="0" cy="0" r="1" gradientUnits="userSpaceOnUse" gradientTransform="translate(1200 220) rotate(10) scale(520 360)">
      <stop stop-color="#D946EF" stop-opacity="0.45"/>
      <stop offset="1" stop-color="#D946EF" stop-opacity="0"/>
    </radialGradient>
    <filter id="blur" x="-20%" y="-20%" width="140%" height="140%">
      <feGaussianBlur stdDeviation="18"/>
    </filter>
  </defs>

  <rect width="1600" height="900" fill="#FBFBFF"/>
  <rect x="-60" y="-60" width="1720" height="1020" fill="url(#g1)" opacity="0.25"/>

  <g filter="url(#blur)">
    <path d="M239 292C224 182 362 92 520 118C678 144 836 86 930 126C1024 166 1012 320 870 360C728 400 707 520 544 520C381 520 254 402 239 292Z" fill="url(#r1)"/>
    <path d="M1020 182C1156 96 1360 118 1434 220C1508 322 1454 466 1328 496C1202 526 1190 638 1058 652C926 666 822 560 822 444C822 328 884 268 1020 182Z" fill="url(#r2)"/>
  </g>

  <g opacity="0.22">
    <path d="M110 660C280 560 450 720 620 620" stroke="#0F172A" stroke-opacity="0.35" stroke-width="2"/>
    <path d="M240 710C420 600 560 780 740 660" stroke="#0F172A" stroke-opacity="0.25" stroke-width="2"/>
    <path d="M980 640C1110 560 1270 700 1410 610" stroke="#0F172A" stroke-opacity="0.25" stroke-width="2"/>
  </g>
</svg>
